<!-- Generated by IcoMoon.io -->
<svg version="1.1" xmlns="http://www.w3.org/2000/svg" width="1024" height="1024" viewBox="0 0 1024 1024">
<g id="icomoon-ignore">
</g>
<path fill="#000" d="M877.714 768c0 20.198-16.374 36.571-36.571 36.571h-694.857c-20.198 0-36.571-16.373-36.571-36.571s16.373-36.571 36.571-36.571h694.857c20.198 0 36.571 16.373 36.571 36.571z"></path>
<path fill="#000" d="M877.714 512.007c0 20.198-16.374 36.575-36.571 36.575l-402.286-0.011c-20.198 0-36.571-16.373-36.571-36.571s16.373-36.571 36.571-36.571l402.286 0.007c20.198 0 36.571 16.377 36.571 36.571z"></path>
<path fill="#000" d="M841.143 292.579c20.198 0 36.571-16.373 36.571-36.571 0-20.195-16.374-36.568-36.571-36.568h-621.714c-20.198 0-36.571 16.373-36.571 36.568 0 20.198 16.373 36.571 36.571 36.571h621.714z"></path>
</svg>
